<svg width="30" height="26" viewBox="0 0 30 26" fill="none" xmlns="http://www.w3.org/2000/svg">
<path d="M2.00108 11.1917L2.00109 11.1917L26.939 0.691458C28.3442 0.0997839 29.8507 1.28803 29.6025 2.79242L26.2937 22.8543C26.0016 24.6253 24.0594 25.6344 22.4415 24.7556C20.9588 23.9503 18.7623 22.7125 16.785 21.4204C15.7974 20.7751 14.8451 20.1038 14.0572 19.4558L14.0572 19.4558C13.5417 19.0319 13.0423 18.575 12.6491 18.1047L12.5836 18.0263L12.482 18.0163C11.023 17.8716 9.18743 17.3577 7.48585 16.7968C5.41682 16.1146 3.35186 15.2946 2.00105 14.7346C0.389752 14.0667 0.453767 11.8431 2.00108 11.1917ZM4.60388 12.7178L4.03706 12.9565L4.60964 13.181C5.70741 13.6114 6.97782 14.0846 8.24254 14.5017L8.24256 14.5017C9.8825 15.0423 11.3918 15.446 12.4857 15.5859L12.6074 15.6014L12.6942 15.5147L19.0208 9.18812L18.844 9.01134L19.0208 9.18811C19.4927 8.71623 20.2578 8.71623 20.7296 9.18811L20.9064 9.01134L20.7296 9.18812C21.2015 9.65997 21.2015 10.4251 20.7296 10.8969L14.953 16.6737L14.7717 16.855L14.9575 17.0316C15.1341 17.1995 15.3447 17.3858 15.5921 17.5892L15.5921 17.5893C16.2854 18.1594 17.1574 18.7768 18.1069 19.3974L18.1069 19.3975C19.9843 20.624 22.0901 21.8136 23.5486 22.6068L23.8575 22.7748L23.9147 22.4279L27.003 3.70241L27.0767 3.25558L26.6593 3.43132L4.60388 12.7178Z" fill="#333333" stroke="#F7F7F7" stroke-width="0.5"/>
</svg>
