<svg width="31" height="31" viewBox="0 0 31 31" fill="none" xmlns="http://www.w3.org/2000/svg">
<path d="M16.7096 27.0783V27.3614L16.9906 27.3264C22.8692 26.5933 27.418 21.579 27.418 15.5019C27.418 8.92052 22.0827 3.58525 15.5013 3.58525C8.91991 3.58525 3.58464 8.92052 3.58464 15.5019C3.58464 21.579 8.13342 26.5933 14.012 27.3264L14.293 27.3614V27.0783V18.4186V18.1686H14.043H11.1263C10.459 18.1686 9.91797 17.6276 9.91797 16.9602C9.91797 16.2929 10.459 15.7519 11.1263 15.7519H14.043H14.293V15.5019V12.5852C14.293 10.3071 16.1397 8.46025 18.418 8.46025H19.1471C19.8145 8.46025 20.3555 9.00124 20.3555 9.66858C20.3555 10.3359 19.8145 10.8769 19.1471 10.8769H18.418C17.4745 10.8769 16.7096 11.6418 16.7096 12.5852V15.5019V15.7519L16.9596 15.7519H19.8763C20.5437 15.7519 21.0846 16.2929 21.0846 16.9602C21.0846 17.6276 20.5437 18.1686 19.8763 18.1686H16.9596H16.7096V18.4186V27.0783ZM29.8346 15.5019C29.8346 23.4179 23.4173 29.8353 15.5013 29.8353C7.58522 29.8353 1.16797 23.4179 1.16797 15.5019C1.16797 7.58583 7.58522 1.16858 15.5013 1.16858C23.4173 1.16858 29.8346 7.58583 29.8346 15.5019Z" fill="#333333" stroke="#F7F7F7" stroke-width="0.5"/>
</svg>
