<svg width="31" height="31" viewBox="0 0 31 31" fill="none" xmlns="http://www.w3.org/2000/svg">
<path d="M14.5859 11.7088L14.5859 11.7088C14.5212 11.6142 14.4555 11.5172 14.389 11.4188L14.364 11.3818L14.3627 11.38L13.8884 10.6921C13.3918 9.9953 12.8268 9.30252 12.1246 8.79031C11.8992 8.62592 11.6122 8.60596 11.373 8.70848C10.0973 9.25522 9.02645 10.6349 9.07786 12.032C9.07903 12.0639 9.08059 12.0978 9.08261 12.1337L9.10197 12.3818L9.13723 12.674L9.19334 13.0124C9.43995 14.3158 10.1831 16.4282 12.3797 18.6249C14.5765 20.8216 16.6888 21.5647 17.9922 21.8113L18.3331 21.8678C18.3836 21.875 18.4324 21.8813 18.4795 21.887L18.7517 21.9139L18.9751 21.9268C20.3697 21.9768 21.7474 20.9121 22.2931 19.6388C22.2931 19.6387 22.2931 19.6387 22.2931 19.6387L14.5859 11.7088ZM14.5859 11.7088C14.7865 12.0022 14.7649 12.391 14.5418 12.6582L14.4516 12.7489L13.12 13.7379L13.1199 13.7379M14.5859 11.7088L13.1199 13.7379M13.1199 13.7379C12.892 13.9073 12.8085 14.2225 12.952 14.484L12.9521 14.4841M13.1199 13.7379L12.9521 14.4841M12.9521 14.4841C13.2638 15.0512 13.8198 15.8981 14.4631 16.5414C15.1067 17.1851 15.992 17.7758 16.5946 18.1203C16.8222 18.2506 17.0954 18.2071 17.2755 18.0427L17.2871 18.0321M12.9521 14.4841L17.2871 18.0321M17.2871 18.0321L17.2973 18.0202M17.2871 18.0321L17.2973 18.0202M17.2973 18.0202L17.3533 17.9544L17.3634 17.9426M17.2973 18.0202L17.3634 17.9426M17.3634 17.9426L17.3719 17.9296M17.3634 17.9426L17.3719 17.9296M17.3719 17.9296L18.2434 16.6021M17.3719 17.9296L18.2434 16.6021M18.2434 16.6021C18.499 16.2684 18.9714 16.196 19.3158 16.4341C19.3159 16.4342 19.316 16.4343 19.3161 16.4343L20.1048 16.9841C20.1052 16.9844 20.1055 16.9846 20.1059 16.9849L18.2434 16.6021ZM8.0898 27.7726L7.99682 27.7186L7.89367 27.7489L3.47206 29.0495C2.5906 29.3088 1.76678 28.5434 1.92095 27.6707L1.95564 27.5248L3.25425 23.1096L3.28533 23.0039L3.22833 22.9097C1.92052 20.7471 1.16797 18.2107 1.16797 15.5019C1.16797 7.58583 7.58522 1.16858 15.5013 1.16858C23.4173 1.16858 29.8346 7.58583 29.8346 15.5019C29.8346 23.4179 23.4173 29.8353 15.5013 29.8353C12.9738 29.8353 10.5965 29.1801 8.53296 28.03L8.0898 27.7726ZM3.58464 15.5019C3.58464 17.8504 4.26273 20.0368 5.43336 21.8802C5.68938 22.2835 5.79829 22.7776 5.71369 23.2669L5.66122 23.4905L5.0191 25.6737L4.88978 26.1134L5.32948 25.9841L7.51932 25.3401C8.07742 25.1759 8.66003 25.2759 9.12296 25.5698C10.9665 26.7405 13.1528 27.4186 15.5013 27.4186C22.0827 27.4186 27.418 22.0833 27.418 15.5019C27.418 8.92052 22.0827 3.58525 15.5013 3.58525C8.91991 3.58525 3.58464 8.92052 3.58464 15.5019Z" fill="#333333" stroke="#F7F7F7" stroke-width="0.5"/>
</svg>
