<svg width="80" height="80" viewBox="0 0 80 80" fill="none" xmlns="http://www.w3.org/2000/svg">
<circle cx="40" cy="40" r="39.25" stroke="white" stroke-width="1.5"/>
<path d="M32.872 53.6561C32.4163 53.6553 31.9687 53.5358 31.5732 53.3095C30.6826 52.8048 30.1289 51.8252 30.1289 50.7616V29.2382C30.1289 28.1716 30.6826 27.1949 31.5732 26.6902C31.9781 26.4575 32.4382 26.3378 32.9052 26.3437C33.3722 26.3496 33.8291 26.4808 34.228 26.7236L52.6231 37.7347C53.0065 37.9751 53.3225 38.3089 53.5416 38.7049C53.7607 39.1008 53.8756 39.5459 53.8756 39.9984C53.8756 40.4509 53.7607 40.896 53.5416 41.2919C53.3225 41.6879 53.0065 42.0217 52.6231 42.2621L34.225 53.2761C33.8168 53.523 33.3491 53.6543 32.872 53.6561Z" fill="white"/>
</svg>
